<?xml version="1.0" encoding="utf-8"?>
<!-- Generator: Adobe Illustrator 22.0.1, SVG Export Plug-In . SVG Version: 6.00 Build 0)  -->
<svg version="1.1" id="Layer_1" xmlns="http://www.w3.org/2000/svg" xmlns:xlink="http://www.w3.org/1999/xlink" x="0px" y="0px"
	 viewBox="0 0 137 12.4" style="enable-background:new 0 0 137 12.4;" xml:space="preserve">
<style type="text/css">
	.st0{fill:#FFFFFF;}
</style>
<g>
	<g>
		<path class="st0" d="M3.6,10.1C3.8,10.5,4,10.8,4.2,11c0.5,0.5,1.3,0.8,2.3,0.8c0.8,0,1.4-0.1,1.7-0.4c0.4-0.2,0.7-0.5,0.8-0.9
			c0.1-0.3,0.2-0.7,0.2-1.2c0-0.4,0-1.2-0.1-1.4C9,7.8,8.8,7.7,8.6,7.6C8.4,7.5,8,7.5,7.6,7.5V7H13v0.5c-0.3,0-0.6,0.1-0.8,0.2
			s-0.3,0.2-0.4,0.4c-0.1,0.2-0.1,0.5-0.1,0.8v2.8c-0.8,0-1.8,0.1-2.7,0.3c-0.7,0.2-1.2,0.3-1.6,0.3c-0.4,0.1-0.8,0.1-1.3,0.1
			c-1.3,0-2.4-0.3-3.3-0.9C2.5,11.4,2.2,11.2,2,11c-0.5-0.5-0.6-1.2,0-1.5C2.7,9,3.3,9.6,3.6,10.1z M0,6.2c0-1.1,0.3-2.1,0.8-3.1
			C1.4,2.2,2.1,1.4,3,0.9s1.9-0.8,3-0.8c1.3,0,2.6,0.5,3.7,1.4c0.1-0.2,0.2-0.6,0.3-1h0.8L11,4.3h-0.8C10,3.7,9.8,3.2,9.5,2.7
			C9.1,2.2,8.4,1.3,7.9,1.1C7.4,0.8,6.8,0.6,6.2,0.6c-1.9,0-2.7,1.6-3.1,3.1C3,4.4,2.8,5.2,2.8,6.2c0,0-0.1,1.8-1.6,1.8
			C0.1,8,0,6.2,0,6.2z"/>
		<path class="st0" d="M27.8,0.7c-0.5,0-0.9,0.1-1.1,0.2s-0.4,0.3-0.4,0.5c-0.1,0.2-0.1,0.6-0.1,1v4.8c0,0.8,0,1.4-0.1,1.8
			s-0.2,0.8-0.4,1.2c-0.4,0.8-1.1,1.3-1.9,1.6s-1.6,0.5-2.3,0.5c-0.5,0-1.1-0.1-1.7-0.2c-0.6-0.1-1.1-0.4-1.6-0.7s-0.9-0.8-1.1-1.3
			c-0.1-0.3-0.2-0.6-0.3-0.9c-0.1-0.3-0.1-0.6-0.1-0.8c0-0.3,0-0.6,0-1V2c0-0.5-0.1-0.9-0.3-1.1c-0.2-0.2-0.7-0.3-1.4-0.3V0.3h6v0.3
			c-0.5,0-0.9,0.1-1.1,0.2S19.5,1,19.4,1.2c-0.2,0.2-0.3,0.5-0.3,0.9v5.4c0,0.5,0,1.5,0.1,1.9c0,0.4,0.1,0.7,0.2,1
			c0.2,0.5,0.5,0.8,1,1.1s1,0.4,1.6,0.4s1.2-0.2,1.7-0.4c0.5-0.3,0.9-0.7,1.1-1.2c0.2-0.4,0.3-0.8,0.3-1.2c0.1-0.4,0.1-1.4,0.1-2
			V2.4c0-0.4,0-0.7,0-0.9c-0.1-0.1-0.1-0.3-0.2-0.4c-0.1-0.1-0.3-0.2-0.5-0.3s-0.6-0.1-1-0.1V0.3h4.4v0.4
			C27.9,0.7,27.8,0.7,27.8,0.7z"/>
		<path class="st0" d="M36.2,12.2h-6v-0.3c0.5,0,0.9-0.1,1.1-0.1c0.3-0.1,0.4-0.2,0.5-0.4s0.1-0.5,0.1-0.8V2.2
			c0-0.5-0.1-0.9-0.3-1.1c-0.2-0.2-0.7-0.3-1.4-0.3V0.3h6v0.4c-0.5,0-0.9,0.1-1.1,0.1c-0.3,0.1-0.4,0.2-0.5,0.4S34.5,1.7,34.5,2v8.2
			c0,0.3,0,0.6,0.1,0.8s0.2,0.3,0.5,0.4c0.2,0.1,0.6,0.2,1.2,0.2v0.5h-0.1V12.2z"/>
		<path class="st0" d="M49.8,7.8C49,7.8,48.4,7,48.5,6c0-1-0.3-2.8-0.9-3.8s-1.6-1.5-3-1.5c-0.5,0-0.8,0.1-1.1,0.2
			c-0.2,0.2-0.3,0.3-0.4,0.5c0,0.2-0.1,0.6-0.1,1v9c0.7,0,1.3,0,1.7-0.1c0.4,0,0.8-0.1,1.1-0.3c0.8-0.3,1.4-1.2,1.9-2
			c0,0,0.5-0.8,1.2-0.5c0.9,0.3,1.2,1.2,0.3,2c-0.4,0.4-0.9,0.7-1.4,0.9c-0.6,0.2-1.2,0.4-1.9,0.5c-0.6,0.2-1.4,0.2-2.4,0.2
			c-0.1,0-0.5,0-1.1,0s-1,0-1.1,0h-2.5v-0.5c0.8,0,1.2-0.1,1.4-0.3s0.3-0.6,0.3-1.1V2c0-0.4,0-0.6-0.1-0.8s-0.2-0.3-0.5-0.4
			s-0.6-0.1-1.1-0.1V0.2h5.4c1.6,0,3,0.2,4.1,0.7c0.5,0.2,1,0.6,1.5,1c0.5,0.5,0.8,1,1.1,1.7c0.2,0.8,0.4,1.5,0.4,2.4
			C51.3,6.8,50.8,7.9,49.8,7.8z"/>
		<path class="st0" d="M64.9,8.2l-0.1,3.9H54.2v-0.4c0.7,0,1.2-0.1,1.4-0.3s0.3-0.6,0.3-1.1V2.5c0-0.3,0-0.9-0.1-1.1
			S55.6,1.1,55.4,1c-0.2-0.1-0.6-0.2-1.1-0.2V0.3h9.9l0.2,3.1h-0.8c-0.2-0.7-0.4-1.2-0.6-1.5c-0.4-0.3-0.6-0.8-0.9-0.8
			C61.7,1,61.3,1,60.7,1h-2.2v4.8h1.2c0.4,0,0.7,0,0.9-0.1s0.3-0.2,0.4-0.4c0.1-0.2,0.1-0.5,0.2-1H62v3.6h-0.8c0-0.4-0.1-0.8-0.2-1
			c-0.1-0.2-0.2-0.3-0.4-0.4s-0.5-0.1-0.9-0.1h-1.2v3.4c0,0.5,0,0.8,0,1s0.1,0.4,0.2,0.5s0.3,0.2,0.5,0.3s0.6,0.1,1,0.1h1
			c0.4,0,0.8-0.1,1.1-0.2c0.4-0.1,0.7-0.4,1.1-0.8c0.4-0.4,0.6-1.7,0.7-2.6L64.9,8.2C64.9,8.1,64.9,8.2,64.9,8.2z"/>
		<path class="st0" d="M78.3,3.5c0,1-0.3,1.7-0.9,2.2s-1.3,0.8-2.1,1c-0.8,0.1-1.7,0.2-2.6,0.2h-0.8v3.5c0,0.3,0,0.6,0.1,0.8
			s0.2,0.3,0.5,0.4c0.2,0.1,0.6,0.1,1.1,0.1v0.4h-6v-0.4c0.5,0,0.9-0.1,1.1-0.2c0.2-0.1,0.4-0.3,0.5-0.4c0.1-0.2,0.1-0.5,0.1-0.8
			V2.1c0-0.3,0-0.6-0.1-0.8S69,1,68.7,0.9c-0.2-0.1-0.6-0.2-1.1-0.2V0.3L71,0.2c0.2,0,0.4,0,0.6,0s0.4,0,0.5,0s0.3,0,0.5,0
			c0.3,0,0.5,0,0.7,0c0.7,0,1.4,0.1,2,0.2s1.3,0.4,1.9,0.9C78,1.7,78.3,2.5,78.3,3.5z M75.6,3.5c0-0.9-0.3-1.9-0.8-2.2
			s-1.3-0.5-2.2-0.5c-0.2,0-0.4,0-0.7,0v5.5h0.8c0.9,0,1.5-0.1,2.1-0.4S75.6,4.5,75.6,3.5z"/>
		<path class="st0" d="M84.8,9.8c0.2,0.4,0.6,1.1,1.2,1.5c0.5,0.4,1.2,0.6,2.1,0.6c0.8,0,1.5-0.2,2.1-0.6c0.5-0.4,0.9-1,1.1-1.6
			s0.4-1.2,0.5-1.8S92,6.7,92,6.2c0-0.7-0.1-1.4-0.2-2.1s-0.3-1.2-0.6-1.8C90.9,1.8,90.5,1.4,90,1c-0.5-0.3-1.1-0.5-1.8-0.5
			c-1,0-1.8,0.3-2.3,0.8c-0.6,0.5-0.9,1.2-1.1,2.1c-0.2,0.8-0.3,1.7-0.3,2.7c0,0.3-0.2,1.3-1.1,1.5c-1.8,0.5-1.9-1.4-1.9-1.4
			c0-1.1,0.2-2,0.7-3c0.5-0.9,1.2-1.7,2.2-2.3C85.3,0.3,86.6,0,88,0c1.3,0,2.3,0.2,3.2,0.6c0.9,0.4,1.6,0.9,2.1,1.6
			c0.5,0.6,0.8,1.3,1.1,2c0.2,0.7,0.3,1.3,0.3,2c0,1.1-0.3,2.1-0.8,3c-0.5,0.9-1.3,1.7-2.3,2.3s-2.2,0.9-3.6,0.9
			c-1.1,0-2.1-0.2-3-0.5c-0.8-0.4-1.6-0.8-2.1-1.4C81.9,9.1,83.9,8,84.8,9.8z"/>
		<path class="st0" d="M103.5,12.2h-6v-0.4c0.5,0,0.9,0,1.1-0.1c0.3-0.1,0.4-0.2,0.5-0.4s0.1-0.5,0.1-0.8V2.2c0-0.5-0.1-0.9-0.3-1.1
			s-0.7-0.3-1.4-0.3V0.3h6v0.4c-0.5,0-0.9,0.1-1.1,0.1c-0.3,0.1-0.4,0.2-0.5,0.4s-0.1,0.5-0.1,0.8v8.2c0,0.3,0,0.6,0.1,0.8
			s0.2,0.3,0.5,0.4c0.2,0.1,0.6,0.2,1.2,0.2v0.5h-0.1C103.5,12.1,103.5,12.2,103.5,12.2z"/>
		<path class="st0" d="M119,0.8c-0.6,0-1,0.1-1.2,0.2s-0.4,0.3-0.5,0.5s-0.1,0.6-0.1,1.1v9.8h-0.8l-7.7-9.2v6.5c0,0.5,0,1.3,0.1,1.5
			s0.2,0.4,0.5,0.5c0.2,0.1,0.7,0.2,1.2,0.2v0.3h-4.4v-0.4c0.5,0,0.9-0.1,1.1-0.2c0.2-0.1,0.4-0.3,0.4-0.5c0.1-0.2,0.1-1,0.1-1.5v-6
			c0-0.5,0-0.9,0-1.1s-0.1-0.5-0.2-0.6c-0.1-0.2-0.3-0.3-0.5-0.4c-0.2-0.1-0.5-0.2-0.9-0.2v-1h3.4l6.7,8V2.5c0-0.4,0-0.8-0.1-1
			s-0.2-0.4-0.5-0.5c-0.2-0.1-0.6-0.2-1.1-0.2V0.3h4.4L119,0.8L119,0.8z"/>
		<path class="st0" d="M128.6,9.7c0,1.4,0,0.8,0,0.8c0,0.3,0,0.6,0.1,0.8s0.2,0.3,0.5,0.4c0.3,0.1,0.6,0.2,1.1,0.2v0.3h-5.9v-0.4
			c0.7,0,1.2-0.1,1.4-0.3c0.2-0.2,0.3-0.6,0.3-1.1c0,0,0,1,0-0.5C126.1,8.3,128.6,7.5,128.6,9.7z M126.1,5.1c0-1.6,0-4.3,0-4.3h-1.3
			c-0.5,0-0.9,0-1.2,0.1c-0.3,0.1-0.6,0.3-0.9,0.6c-0.2,0.4-0.4,0.9-0.4,1.6h-0.8V0.3h11.8v2.8h-0.8c-0.1-0.7-0.2-1.3-0.5-1.6
			c-0.2-0.4-0.5-0.6-0.8-0.6c-0.3-0.1-0.6-0.1-1-0.1h-1.5c0,0,0,3.1,0,4.7C128.6,7.3,126.1,7.6,126.1,5.1z"/>
		<path class="st0" d="M81.5,7.6"/>
	</g>
	<circle class="st0" cx="135.3" cy="10.6" r="1.7"/>
</g>
</svg>
